<?xml version="1.0" encoding="utf-8"?>
<!-- Generator: Adobe Illustrator 24.3.0, SVG Export Plug-In . SVG Version: 6.00 Build 0)  -->
<svg version="1.1" id="Layer_1" xmlns="http://www.w3.org/2000/svg" xmlns:xlink="http://www.w3.org/1999/xlink" x="0px" y="0px"
	 viewBox="0 0 1920 1080" style="enable-background:new 0 0 1920 1080;" xml:space="preserve">
<style type="text/css">
	.st0{clip-path:url(#SVGID_2_);fill:#FFEA00;}
	.st1{clip-path:url(#SVGID_2_);fill:#FFE700;}
	.st2{clip-path:url(#SVGID_2_);fill:#FFE600;}
	.st3{clip-path:url(#SVGID_2_);fill:#FFE400;}
	.st4{clip-path:url(#SVGID_2_);fill:#FFE200;}
	.st5{clip-path:url(#SVGID_2_);fill:#FFE000;}
	.st6{clip-path:url(#SVGID_2_);fill:#FFDE00;}
	.st7{clip-path:url(#SVGID_2_);fill:#FFDD00;}
	.st8{clip-path:url(#SVGID_2_);fill:#FFDA00;}
	.st9{clip-path:url(#SVGID_2_);fill:#FFD900;}
	.st10{clip-path:url(#SVGID_2_);fill:#FFD700;}
	.st11{clip-path:url(#SVGID_2_);fill:#FFD600;}
	.st12{clip-path:url(#SVGID_2_);fill:#FFD300;}
	.st13{clip-path:url(#SVGID_2_);fill:#FFD200;}
	.st14{clip-path:url(#SVGID_2_);fill:#FFD000;}
	.st15{clip-path:url(#SVGID_2_);fill:#FFCE01;}
	.st16{clip-path:url(#SVGID_2_);fill:#FFCC02;}
	.st17{clip-path:url(#SVGID_2_);fill:#FFCA05;}
	.st18{clip-path:url(#SVGID_2_);fill:#FFC906;}
	.st19{clip-path:url(#SVGID_2_);fill:#FFC609;}
	.st20{clip-path:url(#SVGID_2_);fill:#FFC50A;}
	.st21{clip-path:url(#SVGID_2_);fill:#FFC30C;}
	.st22{clip-path:url(#SVGID_2_);fill:#FFC10E;}
	.st23{clip-path:url(#SVGID_2_);fill:#FDBF0F;}
	.st24{clip-path:url(#SVGID_2_);fill:#FDBD10;}
	.st25{clip-path:url(#SVGID_2_);fill:#FDBC11;}
	.st26{clip-path:url(#SVGID_2_);fill:#FCB912;}
	.st27{clip-path:url(#SVGID_2_);fill:#FCB813;}
	.st28{clip-path:url(#SVGID_2_);fill:#FCB614;}
	.st29{clip-path:url(#SVGID_2_);fill:#FCB415;}
	.st30{clip-path:url(#SVGID_2_);fill:#FBB216;}
	.st31{clip-path:url(#SVGID_2_);fill:#FBB016;}
	.st32{clip-path:url(#SVGID_2_);fill:#FBAE17;}
	.st33{clip-path:url(#SVGID_2_);fill:#FAAC18;}
	.st34{clip-path:url(#SVGID_2_);fill:#FAAB18;}
	.st35{clip-path:url(#SVGID_2_);fill:#FAA819;}
	.st36{clip-path:url(#SVGID_2_);fill:#F9A719;}
	.st37{clip-path:url(#SVGID_2_);fill:#F9A51A;}
	.st38{clip-path:url(#SVGID_2_);fill:#F9A31A;}
	.st39{clip-path:url(#SVGID_2_);fill:#F9A11B;}
	.st40{clip-path:url(#SVGID_2_);fill:#F89F1B;}
	.st41{clip-path:url(#SVGID_2_);fill:#F89E1B;}
	.st42{clip-path:url(#SVGID_2_);fill:#F89C1C;}
	.st43{clip-path:url(#SVGID_2_);fill:#F89A1C;}
	.st44{clip-path:url(#SVGID_2_);fill:#F7981D;}
	.st45{clip-path:url(#SVGID_2_);fill:#F7971D;}
	.st46{clip-path:url(#SVGID_2_);fill:#F7941D;}
	.st47{clip-path:url(#SVGID_2_);fill:#F6921E;}
	.st48{clip-path:url(#SVGID_2_);fill:#F6911E;}
	.st49{clip-path:url(#SVGID_2_);fill:#F68F1E;}
	.st50{clip-path:url(#SVGID_2_);fill:#F68E1E;}
	.st51{clip-path:url(#SVGID_2_);fill:#F68C1E;}
	.st52{clip-path:url(#SVGID_2_);fill:#F58A1F;}
	.st53{clip-path:url(#SVGID_2_);fill:#F5881F;}
	.st54{clip-path:url(#SVGID_2_);fill:#F5871F;}
	.st55{clip-path:url(#SVGID_2_);fill:#F5851F;}
	.st56{clip-path:url(#SVGID_2_);fill:#F4821F;}
	.st57{clip-path:url(#SVGID_2_);fill:#F48120;}
	.st58{clip-path:url(#SVGID_2_);fill:#F48020;}
	.st59{clip-path:url(#SVGID_2_);fill:#F47E20;}
	.st60{clip-path:url(#SVGID_2_);fill:#F37C20;}
	.st61{clip-path:url(#SVGID_2_);fill:#F37B20;}
	.st62{clip-path:url(#SVGID_2_);fill:#F37920;}
	.st63{clip-path:url(#SVGID_2_);fill:#F37721;}
	.st64{clip-path:url(#SVGID_2_);fill:#F37521;}
	.st65{clip-path:url(#SVGID_2_);fill:#F27321;}
	.st66{clip-path:url(#SVGID_2_);fill:#F27121;}
	.st67{clip-path:url(#SVGID_2_);fill:#F26F21;}
	.st68{clip-path:url(#SVGID_2_);fill:#F26E21;}
	.st69{clip-path:url(#SVGID_2_);fill:#F26B21;}
	.st70{clip-path:url(#SVGID_2_);fill:#F16A21;}
	.st71{clip-path:url(#SVGID_2_);fill:#F16722;}
	.st72{clip-path:url(#SVGID_2_);fill:#F16522;}
	.st73{clip-path:url(#SVGID_2_);fill:#F16322;}
	.st74{clip-path:url(#SVGID_2_);fill:#F06022;}
	.st75{clip-path:url(#SVGID_2_);fill:#F05F22;}
	.st76{clip-path:url(#SVGID_2_);fill:#F05C22;}
	.st77{clip-path:url(#SVGID_2_);fill:#F05A22;}
	.st78{clip-path:url(#SVGID_2_);fill:#F05822;}
	.st79{clip-path:url(#SVGID_2_);fill:#F05623;}
	.st80{clip-path:url(#SVGID_2_);fill:#EF5323;}
	.st81{clip-path:url(#SVGID_2_);fill:#EF5023;}
	.st82{clip-path:url(#SVGID_2_);fill:#EF4E23;}
	.st83{clip-path:url(#SVGID_2_);fill:#EF4B23;}
	.st84{clip-path:url(#SVGID_2_);fill:#EF4923;}
	.st85{clip-path:url(#SVGID_2_);fill:#EE4623;}
	.st86{clip-path:url(#SVGID_2_);fill:#EE4423;}
	.st87{clip-path:url(#SVGID_2_);fill:#EE4023;}
	.st88{clip-path:url(#SVGID_2_);fill:#EE3E23;}
	.st89{clip-path:url(#SVGID_2_);fill:#EE3B24;}
	.st90{clip-path:url(#SVGID_2_);fill:#ED3724;}
	.st91{clip-path:url(#SVGID_2_);fill:#ED3424;}
	.st92{clip-path:url(#SVGID_2_);fill:#ED3024;}
	.st93{clip-path:url(#SVGID_2_);fill:#ED2D24;}
	.st94{clip-path:url(#SVGID_2_);fill:#ED2924;}
	.st95{clip-path:url(#SVGID_2_);fill:#ED2524;}
	.st96{clip-path:url(#SVGID_2_);fill:#EC2024;}
	.st97{clip-path:url(#SVGID_2_);fill:#EC1C24;}
	.st98{fill:none;stroke:#928F94;stroke-miterlimit:3.8637;}
	.st99{fill:#FFFFFF;stroke:#928F94;stroke-width:0.25;stroke-miterlimit:3.8637;}
	.st100{fill-rule:evenodd;clip-rule:evenodd;fill:#FFFFFF;}
	.st101{fill:none;stroke:#928F94;stroke-width:0.25;stroke-miterlimit:3.8637;}
</style>
<g>
	<g>
		<defs>
			<path id="SVGID_1_" d="M1381,572.2l26.6-43.4l47.5-2.6l16.9,26L1381,572.2L1381,572.2z M310.8,488l244.1,65.9l13.6,27.4
				l-34.2,31.5l19.3,49.4l50.7-2.7l9.5,23.3L404.1,743l50.7-71.3c0,0,67,1.4,67-2.7c0-4.1-12.2-36.9-12.2-36.9s-8.1-11.1-4.1-19.3
				c4.1-8.1,16.3-13.8,6.8-17.9c-9.5-4.1-17.6,4.1-30.1,4.1c-12.5,0-52.1-12.2-52.1-12.2s-3-19.3-13.8-20.6
				c-10.9-1.4-57.5-8.1-57.5-8.1L310.8,488L310.8,488z M641.2,704.4c0-4.1-90.3-213.8-90.3-213.8l47.8,28.8l9.8,28.8l54.8,12.5
				l-22-41.2l-27.4-20.4l-57.5-176.9c0,0,1.1-10.9,10.9-1.4c9.8,9.5,63.2,68.4,63.2,68.4l54.8,175.5l23.3,4.1l-15.2-50.7l82.2,98.7
				l1.4,39.9h102.8L837,710.1l-14.9,4.1l-1.4,48l-12.6,15.3l-3.1-82.7l14.3-3.1l22-15.8l-63.8,3.6c0,0,0,38.8-1.5,47.5
				c-1.5,8.7-12.2,38.3-12.2,38.3l-45.5-168.5l-95-5.6l29.6,70.5C652.9,661.6,641.2,708.5,641.2,704.4L641.2,704.4z M818.8,590.6
				l72.5,11.2c0,0,17.9,21.4,17.9,23.5c0,2-66.9,3.6-66.9,3.6L818.8,590.6L818.8,590.6z M864.8,696.3c0,0,110.8-52.1,113.9-50
				c3.1,2,15.3,9.2,15.3,9.2l-90.4,64.3L864.8,696.3L864.8,696.3z M775.4,595.7l-79.1-83.2l4.6-23l76.1,75.6L775.4,595.7
				L775.4,595.7z M777,550.3l-76.6-71.5v-19.4l37.3,1l41.3,53.1L777,550.3L777,550.3z M950.1,625.8c-0.5-1.5-12.8-13.3-12.8-13.3
				l-30.6-307.9l13.3-23.5l53.1,33.2l-1.5,208.9c0,0,120-8.7,121.5-9.2c1.5-0.5,12.8-140.4,12.8-140.4l55.1,99.6l-21.5,147.5
				l-27.6,35.2l-20.9-24.5l6.7-49c0,0,29.1-11.2,29.1-12.8s-4.1-13.3-4.1-13.3l-30.6,13.3l1.5-20.9l-21.4,1.6l-67.9,221.1
				l-0.5-162.9l31.7-46.5l-11.2-25l-7.7-0.5l-4.1,15.8l-38.3-1.5l1,27.1C975.1,577.9,950.6,627.4,950.1,625.8L950.1,625.8z
				 M1178.8,510.5l37.8,48.5l-23,90.9l-108.2,138.9l-27.6,9.2l97.5-163.4L1178.8,510.5L1178.8,510.5z M1229.4,591.1
				c4.6,0,64.3-0.5,64.3-0.5l25.5-21.5l78.1-199.1l60.8-46l16.9,1.5l-10.2,17.4l-2,15.8l-95,213.9l-33.7,21.5l7.7,9.7l20.4-13.3
				l57.2-3.1l-12.3,20.9l-81.2,30.1l4.6,21.5l-34.2,29.1l-22.5,44.9l-35.7,36.2l2.5-18.4l46-105.2l-28.6,1l-6.1,20.4l-31.7,16.3
				l7.2,10.7l-74.6,61.3l-31.7,2.1l95-108.3C1216.1,650.3,1230.4,592.1,1229.4,591.1L1229.4,591.1z M1389.2,638.1l182.3-84.8l37.8,1
				l-198.1,109.3L1389.2,638.1L1389.2,638.1z"/>
		</defs>
		<clipPath id="SVGID_2_">
			<use xlink:href="#SVGID_1_"  style="overflow:visible;"/>
		</clipPath>
		<rect x="310.8" y="280.6" class="st0" width="1298.4" height="157.8"/>
		<rect x="310.8" y="437" class="st0" width="1298.4" height="3.1"/>
		<rect x="310.8" y="440.2" class="st1" width="1298.4" height="3.1"/>
		<rect x="310.8" y="443.5" class="st2" width="1298.4" height="3.1"/>
		<rect x="310.8" y="446.7" class="st3" width="1298.4" height="3.1"/>
		<rect x="310.8" y="450" class="st4" width="1298.4" height="3.1"/>
		<rect x="310.8" y="453.2" class="st5" width="1298.4" height="3.1"/>
		<rect x="310.8" y="456.5" class="st6" width="1298.4" height="3.1"/>
		<rect x="310.8" y="459.8" class="st7" width="1298.4" height="3.1"/>
		<rect x="310.8" y="463" class="st8" width="1298.4" height="3.1"/>
		<rect x="310.8" y="466.3" class="st9" width="1298.4" height="3.1"/>
		<rect x="310.8" y="469.5" class="st10" width="1298.4" height="3.1"/>
		<rect x="310.8" y="472.8" class="st11" width="1298.4" height="3.1"/>
		<rect x="310.8" y="476" class="st12" width="1298.4" height="3.1"/>
		<rect x="310.8" y="479.3" class="st13" width="1298.4" height="3.1"/>
		<rect x="310.8" y="482.6" class="st14" width="1298.4" height="3.1"/>
		<rect x="310.8" y="485.8" class="st15" width="1298.4" height="3.1"/>
		<rect x="310.8" y="489.1" class="st16" width="1298.4" height="3.1"/>
		<rect x="310.8" y="492.3" class="st17" width="1298.4" height="3.1"/>
		<rect x="310.8" y="495.6" class="st18" width="1298.4" height="3.1"/>
		<rect x="310.8" y="498.9" class="st19" width="1298.4" height="3.1"/>
		<rect x="310.8" y="502.1" class="st20" width="1298.4" height="3.1"/>
		<rect x="310.8" y="505.4" class="st21" width="1298.4" height="3.1"/>
		<rect x="310.8" y="508.6" class="st22" width="1298.4" height="3.1"/>
		<rect x="310.8" y="511.9" class="st23" width="1298.4" height="3.1"/>
		<rect x="310.8" y="515.1" class="st24" width="1298.4" height="3.1"/>
		<rect x="310.8" y="518.4" class="st25" width="1298.4" height="3.1"/>
		<rect x="310.8" y="521.7" class="st26" width="1298.4" height="3.1"/>
		<rect x="310.8" y="524.9" class="st27" width="1298.4" height="3.1"/>
		<rect x="310.8" y="528.2" class="st28" width="1298.4" height="3.1"/>
		<rect x="310.8" y="531.4" class="st29" width="1298.4" height="3.1"/>
		<rect x="310.8" y="534.7" class="st30" width="1298.4" height="3.1"/>
		<rect x="310.8" y="537.9" class="st31" width="1298.4" height="3.1"/>
		<rect x="310.8" y="541.2" class="st32" width="1298.4" height="3.1"/>
		<rect x="310.8" y="544.5" class="st33" width="1298.4" height="3.1"/>
		<rect x="310.8" y="547.7" class="st34" width="1298.4" height="3.1"/>
		<rect x="310.8" y="551" class="st35" width="1298.4" height="3.1"/>
		<rect x="310.8" y="554.2" class="st36" width="1298.4" height="3.1"/>
		<rect x="310.8" y="557.5" class="st37" width="1298.4" height="3.1"/>
		<rect x="310.8" y="560.7" class="st38" width="1298.4" height="3.1"/>
		<rect x="310.8" y="564" class="st39" width="1298.4" height="3.1"/>
		<rect x="310.8" y="567.3" class="st40" width="1298.4" height="3.1"/>
		<rect x="310.8" y="570.5" class="st41" width="1298.4" height="3.1"/>
		<rect x="310.8" y="573.8" class="st42" width="1298.4" height="3.1"/>
		<rect x="310.8" y="577" class="st43" width="1298.4" height="3.1"/>
		<rect x="310.8" y="580.3" class="st44" width="1298.4" height="3.1"/>
		<rect x="310.8" y="583.5" class="st45" width="1298.4" height="3.1"/>
		<rect x="310.8" y="586.8" class="st46" width="1298.4" height="3.1"/>
		<rect x="310.8" y="590.1" class="st47" width="1298.4" height="3.1"/>
		<rect x="310.8" y="593.3" class="st48" width="1298.4" height="3.1"/>
		<rect x="310.8" y="596.6" class="st49" width="1298.4" height="3.1"/>
		<rect x="310.8" y="599.8" class="st50" width="1298.4" height="3.1"/>
		<rect x="310.8" y="603.1" class="st51" width="1298.4" height="3.1"/>
		<rect x="310.8" y="606.3" class="st52" width="1298.4" height="3.1"/>
		<rect x="310.8" y="609.6" class="st53" width="1298.4" height="3.1"/>
		<rect x="310.8" y="612.9" class="st54" width="1298.4" height="3.1"/>
		<rect x="310.8" y="616.1" class="st55" width="1298.4" height="3.1"/>
		<rect x="310.8" y="619.4" class="st56" width="1298.4" height="3.1"/>
		<rect x="310.8" y="622.6" class="st57" width="1298.4" height="3.1"/>
		<rect x="310.8" y="625.9" class="st58" width="1298.4" height="3.1"/>
		<rect x="310.8" y="629.2" class="st59" width="1298.4" height="3.1"/>
		<rect x="310.8" y="632.4" class="st60" width="1298.4" height="3.1"/>
		<rect x="310.8" y="635.7" class="st61" width="1298.4" height="3.1"/>
		<rect x="310.8" y="638.9" class="st62" width="1298.4" height="3.1"/>
		<rect x="310.8" y="642.2" class="st63" width="1298.4" height="3.1"/>
		<rect x="310.8" y="645.4" class="st64" width="1298.4" height="3.1"/>
		<rect x="310.8" y="648.7" class="st65" width="1298.4" height="3.1"/>
		<rect x="310.8" y="652" class="st66" width="1298.4" height="3.1"/>
		<rect x="310.8" y="655.2" class="st67" width="1298.4" height="3.1"/>
		<rect x="310.8" y="658.5" class="st68" width="1298.4" height="3.1"/>
		<rect x="310.8" y="661.7" class="st69" width="1298.4" height="3.1"/>
		<rect x="310.8" y="665" class="st70" width="1298.4" height="3.1"/>
		<rect x="310.8" y="668.2" class="st71" width="1298.4" height="3.1"/>
		<rect x="310.8" y="671.5" class="st72" width="1298.4" height="3.1"/>
		<rect x="310.8" y="674.8" class="st73" width="1298.4" height="3.1"/>
		<rect x="310.8" y="678" class="st74" width="1298.4" height="3.1"/>
		<rect x="310.8" y="681.3" class="st75" width="1298.4" height="3.1"/>
		<rect x="310.8" y="684.5" class="st76" width="1298.4" height="3.1"/>
		<rect x="310.8" y="687.8" class="st77" width="1298.4" height="3.1"/>
		<rect x="310.8" y="691" class="st78" width="1298.4" height="3.1"/>
		<rect x="310.8" y="694.3" class="st79" width="1298.4" height="3.1"/>
		<rect x="310.8" y="697.6" class="st80" width="1298.4" height="3.1"/>
		<rect x="310.8" y="700.8" class="st81" width="1298.4" height="3.1"/>
		<rect x="310.8" y="704.1" class="st82" width="1298.4" height="3.1"/>
		<rect x="310.8" y="707.3" class="st83" width="1298.4" height="3.1"/>
		<rect x="310.8" y="710.6" class="st84" width="1298.4" height="3.1"/>
		<rect x="310.8" y="713.8" class="st85" width="1298.4" height="3.1"/>
		<rect x="310.8" y="717.1" class="st86" width="1298.4" height="3.1"/>
		<rect x="310.8" y="720.4" class="st87" width="1298.4" height="3.1"/>
		<rect x="310.8" y="723.6" class="st88" width="1298.4" height="3.1"/>
		<rect x="310.8" y="726.9" class="st89" width="1298.4" height="3.1"/>
		<rect x="310.8" y="730.1" class="st90" width="1298.4" height="3.1"/>
		<rect x="310.8" y="733.4" class="st91" width="1298.4" height="3.1"/>
		<rect x="310.8" y="736.6" class="st92" width="1298.4" height="3.1"/>
		<rect x="310.8" y="739.9" class="st93" width="1298.4" height="3.1"/>
		<rect x="310.8" y="743.2" class="st94" width="1298.4" height="3.1"/>
		<rect x="310.8" y="746.4" class="st95" width="1298.4" height="3.1"/>
		<rect x="310.8" y="749.7" class="st96" width="1298.4" height="3.1"/>
		<rect x="310.8" y="752.9" class="st97" width="1298.4" height="3.1"/>
		<rect x="310.8" y="754.2" class="st97" width="1298.4" height="44.5"/>
	</g>
	<path class="st98" d="M1381,572.2l26.6-43.4l47.5-2.6l16.9,26L1381,572.2L1381,572.2z M310.8,488l244.1,65.9l13.6,27.4l-34.2,31.5
		l19.3,49.4l50.7-2.7l9.5,23.3L404.1,743l50.7-71.3c0,0,67,1.4,67-2.7c0-4.1-12.2-36.9-12.2-36.9s-8.1-11.1-4.1-19.3
		c4.1-8.1,16.3-13.8,6.8-17.9c-9.5-4.1-17.6,4.1-30.1,4.1c-12.5,0-52.1-12.2-52.1-12.2s-3-19.3-13.8-20.6
		c-10.9-1.4-57.5-8.1-57.5-8.1L310.8,488L310.8,488z M641.2,704.4c0-4.1-90.3-213.8-90.3-213.8l47.8,28.8l9.8,28.8l54.8,12.5
		l-22-41.2l-27.4-20.4l-57.5-176.9c0,0,1.1-10.9,10.9-1.4c9.8,9.5,63.2,68.4,63.2,68.4l54.8,175.5l23.3,4.1l-15.2-50.7l82.2,98.7
		l1.4,39.9h102.8L837,710.1l-14.9,4.1l-1.4,48l-12.6,15.3l-3.1-82.7l14.3-3.1l22-15.8l-63.8,3.6c0,0,0,38.8-1.5,47.5
		c-1.5,8.7-12.2,38.3-12.2,38.3l-45.5-168.5l-95-5.6l29.6,70.5C652.9,661.6,641.2,708.5,641.2,704.4L641.2,704.4z M818.8,590.6
		l72.5,11.2c0,0,17.9,21.4,17.9,23.5c0,2-66.9,3.6-66.9,3.6L818.8,590.6L818.8,590.6z M864.8,696.3c0,0,110.8-52.1,113.9-50
		c3.1,2,15.3,9.2,15.3,9.2l-90.4,64.3L864.8,696.3L864.8,696.3z M775.4,595.7l-79.1-83.2l4.6-23l76.1,75.6L775.4,595.7L775.4,595.7z
		 M777,550.3l-76.6-71.5v-19.4l37.3,1l41.3,53.1L777,550.3L777,550.3z M950.1,625.8c-0.5-1.5-12.8-13.3-12.8-13.3l-30.6-307.9
		l13.3-23.5l53.1,33.2l-1.5,208.9c0,0,120-8.7,121.5-9.2c1.5-0.5,12.8-140.4,12.8-140.4l55.1,99.6l-21.5,147.5l-27.6,35.2
		l-20.9-24.5l6.7-49c0,0,29.1-11.2,29.1-12.8s-4.1-13.3-4.1-13.3l-30.6,13.3l1.5-20.9l-21.4,1.6l-67.9,221.1l-0.5-162.9l31.7-46.5
		l-11.2-25l-7.7-0.5l-4.1,15.8l-38.3-1.5l1,27.1C975.1,577.9,950.6,627.4,950.1,625.8L950.1,625.8z M1178.8,510.5l37.8,48.5
		l-23,90.9l-108.2,138.9l-27.6,9.2l97.5-163.4L1178.8,510.5L1178.8,510.5z M1229.4,591.1c4.6,0,64.3-0.5,64.3-0.5l25.5-21.5
		l78.1-199.1l60.8-46l16.9,1.5l-10.2,17.4l-2,15.8l-95,213.9l-33.7,21.5l7.7,9.7l20.4-13.3l57.2-3.1l-12.3,20.9l-81.2,30.1l4.6,21.5
		l-34.2,29.1l-22.5,44.9l-35.7,36.2l2.5-18.4l46-105.2l-28.6,1l-6.1,20.4l-31.7,16.3l7.2,10.7l-74.6,61.3l-31.7,2.1l95-108.3
		C1216.1,650.3,1230.4,592.1,1229.4,591.1L1229.4,591.1z M1389.2,638.1l182.3-84.8l37.8,1l-198.1,109.3L1389.2,638.1L1389.2,638.1z"
		/>
	<path class="st99" d="M377.1,415.4h162v10.8h-12.2l33.7,88.5l37.5-89.1h-15.7v-10.2h68.9v10.2h-11.5l-42.3,107h-42.9l-42.2-106.4
		h-8.2v26.6h-9.8v-17.4c0,0-1.6-9.2-13.2-9.2c-11.7,0-53.2,0-53.2,0v44.5c0,0,35.8,0,42.2,0c6.3,0,9.4-12.7,9.4-12.7h6.3v35.8h-8.2
		c0,0-0.6-12.7-8.6-12.7c-8.1,0-42.2,0-42.2,0v41.6c0,0,45.8-1.2,55.5-1.2c9.8,0,15-16.1,15-16.1h7.5v27.1H377.1v-9.8h16.1v-96
		h-16.7L377.1,415.4L377.1,415.4z"/>
	<path class="st99" d="M607.3,532.6v-9.3h9.4c0,0,2.3-2.7,6.9-13.8c4.6-11.1,39.4-94.1,39.4-94.1h37l43.5,107.3h8.6v-97.7h-12.7
		v-9.7h68.2l41.7,101v-90.2h-14v-10.8h42.3v12h-15.7v95.4h10.5v9.8h-70.6L763,437.1v80.4c0,0,2.5,5.8,5.3,5.8s9.2,0.6,9.2,0.6v8.7
		h-89.6v-9.3h13.2L667,434.3l-33.7,78.1c0,0,0.2,9.2,4.8,9.2c4.6,0,10.4,0,10.4,0v11H607.3L607.3,532.6z"/>
	<path class="st99" d="M924,417.4c25.1,0,38.1,11.1,38.1,11.1s6.3,1.7,8.1-1.2c1.7-2.9,9.4-12,9.4-12h12.7v43.7h-28.3v-20.9
		c0,0-15.5-10.9-30.1-10.9c-14.5,0-28.3,7.5-28.3,28.3c0,20.9,0,52.7,0,52.7s7.6,17.3,23.7,17.3c16.1,0,24.3-7.5,26-10.4
		c1.7-2.9,0-31.8,0-31.8h-14.5V473h51.5v59.6h-9.2v-10.1c0-3.1-3-8.8-10.5-8.3c-6.1,0.4-15,21.3-43.9,21.3s-62-20.4-62-39.4
		c0-19,0.6-36.4,0.6-36.4S870.1,417.4,924,417.4L924,417.4z"/>
	<path class="st99" d="M1125.2,415.4h59.1v12.5h-5.3c0,0-4.6-1.7-4.6,4.6c0,6.3,0,93.1,0,93.1h41.2c0,0,7.5-11.5,8.6-17.8
		c1.1-6.3,4.6-11.7,4.6-11.7h8.2l-5.3,36.5h-105.3v-8.1h12.2v-96.5h-13.4V415.4L1125.2,415.4z"/>
	<path class="st99" d="M1241.1,425.6v-10.2h57.8v12.5h-8.6c0,0-4.6-1.7-4.6,4.6c0,6.3-0.2,89.1-0.2,89.1s1.7,3.7,4.1,3.7
		c1.7,0,12.5,0,12.5,0v9.3h-65.5v-9.4h10.2c0,0,4.5-1.2,4.5-4.5c0-3.3,0-89.1,0-89.1s-1.6-4.1-4.1-4.1
		C1244.8,427.6,1241.1,425.6,1241.1,425.6L1241.1,425.6z"/>
	<path class="st100" d="M1361.1,427.2c-22,0-25.2,21.2-25.2,21.2v60.2c0,6.5,4.6,16.7,27.8,16.7c23.2,0,27.2-16.7,27.2-16.7v-57.4
		C1390.8,434.9,1380.3,427.2,1361.1,427.2L1361.1,427.2z M1359.9,419.9c29.3,0,66.7,12.6,66.7,56.2s-35,57.9-66.7,57.9
		s-61-13.2-61-53.5S1318,419.9,1359.9,419.9L1359.9,419.9z"/>
	<path class="st101" d="M1361.1,427.2c-22,0-25.2,21.2-25.2,21.2v60.2c0,6.5,4.6,16.7,27.8,16.7c23.2,0,27.2-16.7,27.2-16.7v-57.4
		C1390.8,434.9,1380.3,427.2,1361.1,427.2L1361.1,427.2z M1359.9,419.9c29.3,0,66.7,12.6,66.7,56.2s-35,57.9-66.7,57.9
		s-61-13.2-61-53.5S1318,419.9,1359.9,419.9L1359.9,419.9z"/>
	<path class="st99" d="M996.1,415.4l127.2,0l0,37.4h-9.8v-17.4c0,0-1.6-9.2-13.2-9.2c-11.7,0-53.2,0-53.2,0v44.5c0,0,35.8,0,42.1,0
		c6.3,0,9.4-12.7,9.4-12.7h6.3v35.8h-8.2c0,0-0.6-12.7-8.6-12.7c-8.1,0-42.1,0-42.1,0v41.6c0,0,45.8-1.2,55.5-1.2
		c9.8,0,15-16.1,15-16.1h7.5v27.1H996.1v-9.8h16.1v-96H996L996.1,415.4L996.1,415.4z"/>
	<path class="st99" d="M1435.9,518.8v-92.6h-12.7v-9.7h68.2l41.7,101v-85.3c0-3.3-2.8-4.9-2.8-4.9h-11.2v-10.8h42.3v11h-12.9
		c0,0-2.8,1.4-2.8,5.2c0,1.8,0,91.1,0,91.1h10.5v9.8h-70.6l-38.9-95.5v80.4c0,0,2.5,5.8,5.3,5.8s9.2,0.6,9.2,0.6v8.7h-38v-9.3
		l6.8-0.3C1434.7,524.1,1435.9,518.8,1435.9,518.8L1435.9,518.8z"/>
</g>
</svg>
