<?xml version="1.0" encoding="utf-8"?>
<!-- Generator: Adobe Illustrator 24.3.0, SVG Export Plug-In . SVG Version: 6.00 Build 0)  -->
<svg version="1.1" id="Layer_1" xmlns="http://www.w3.org/2000/svg" xmlns:xlink="http://www.w3.org/1999/xlink" x="0px" y="0px"
	 viewBox="0 0 2500 2500" style="enable-background:new 0 0 2500 2500;" xml:space="preserve">
<style type="text/css">
	.st0{fill:#FFFFFF;}
</style>
<g>
	<path class="st0" d="M474.6,1280.8H294.3v-14c0,7.5,49.5-11.2,55.1-14.9c19.6-14.9,18.7-42,18.7-64.5V938V830.5
		c0-43.9-37.4-57-73.8-57v-14h184c0,0,235.4,299,239.2,303.6c-2.8-2.8,0-21.5,0-26.2c0-20.6,0.9-41.1,0-61.7
		c0-39.2,0-78.5,0.9-116.8c0-42,0-77.5-49.5-84.1c-0.9,0-26.2-1.9-26.2-0.9v-14h186.8v14c0-2.8-38.3,2.8-43,3.7
		c-31.8,11.2-33.6,48.6-33.6,76.6c0.9,48.6,1.9,96.2,1.9,144.8v289.6h-11.2L405.5,865.1v322.3c0,46.7,19.6,79.4,69.1,79.4V1280.8z
		 M1028.6,1773.2v-7.5v-110.2v-181.2c0-27.1,7.5-68.2-7.5-92.5c-7.5-10.3-19.6-14.9-30.8-16.8c-2.8-0.9-31.8-3.7-31.8-2.8V1349
		h126.1c52.3,0,104.6-0.9,157,0.9c49.5,1.9,99,10.3,132.7,52.3c36.4,44.8,43,111.2,6.5,157.9c-21.5,27.1-52.3,50.4-85,60.7
		c4.7-0.9,53.3,75.7,57.9,83.1c20.6,30.8,40.2,62.6,59.8,94.4c14,23.4,33.6,54.2,65.4,54.2v14h-157
		c-39.2-59.8-76.6-119.6-115.8-179.4c-14.9-23.4-31.8-57-63.5-57c0,56.1-4.7,114.9,0.9,171c3.7,29.9,15.9,46.7,46.7,50.4l11.2,0.9
		h11.2v14H958.5c0-16.8,4.7-13.1,20.6-14.9c13.1-0.9,27.1-2.8,37.4-13.1C1031.4,1822.7,1028.6,1794.7,1028.6,1773.2L1028.6,1773.2z
		 M1142.6,1377.1v224.2c48.6,0,97.2-1.9,124.3-47.6c25.2-42,28-103.7-6.5-142c-18.7-22.4-49.5-34.6-79.4-34.6H1142.6z"/>
	<path class="st0" d="M2230.9,568c-1.9-5.6-2.8-13.1-6.5-16.8c-11.2-10.3-14.9-23.4-29-32.7c-9.3-5.6-20.6-7.5-26.2-18.7
		c-11.2-21.5-0.9-39.2-27.1-54.2c-8.4-4.7-19.6-5.6-25.2-14s-2.8-20.6-8.4-29c-11.2-15.9-32.7-26.2-45.8-39.2
		c-11.2-10.3-11.2-28-21.5-38.3c-13.1-13.1-40.2-5.6-57-6.5c-2.8-20.6-31.8-27.1-47.6-30.8c-17.8-3.7-25.2-20.6-41.1-29.9
		c-16.8-9.3-34.6-5.6-52.3-5.6c-32.7-0.9-77.5-8.4-82.2-48.6c11.2-4.7,14-13.1,22.4-21.5c7.5-7.5,13.1-8.4,15.9-19.6
		c2.8-9.3,0-19.6,1.9-29c3.7-20.6,18.7-34.6,37.4-43.9c-15.9-33.6-59.8-14.9-86.9-31.8c-11.2-7.5-20.6-14-35.5-13.1
		c-14.9,1.9-26.2,7.5-42,5.6c-15.9-0.9-21.5-9.3-35.5-13.1c-13.1-2.8-31.8,1.9-42,8.4c-0.9,0,0,0.9,0,0.9
		c-20.6,18.7-34.6,12.1-56.1,0.9c-17.8-10.3-37.4-10.3-55.1,0c-15.9,10.3-30.8,18.7-50.4,13.1c-19.6-5.6-36.4-13.1-55.1-1.9
		c-8.4,4.7-13.1,12.1-21.5,14.9c-17.8,4.7-41.1,0.9-59.8,2.8c-21.5,2.8-43,6.5-62.6,14c-44.8,16.8-79.4,43.9-105.6,84.1
		c-54.2,85.9-18.7,198.1-42,291.5c-15.9,65.4-62.6,132.7-135.5,135.5c-50.4,1.9-90.6-31.8-120.5-69.1c-35.5-43-67.3-88.8-96.2-136.4
		c-21.5-37.4-44.8-79.4-53.3-122.4l-2.8-13.1l-84.1,85l380.2,413.9H839.9v14c0-0.9,30.8,1.9,33.6,1.9c12.1,2.8,25.2,6.5,32.7,17.8
		c24.3,35.5,17.8,77.5,17.8,117.7c-0.9,55.1-2.8,255-10.3,315.8c-4.7,34.6-43,41.1-72.9,40.2c0,1.9-0.9,14-0.9,14H1264l24.3-170h-14
		c-1.9,0-19.6,44.8-21.5,48.6c-10.3,25.2-27.1,44.8-50.4,59.8c-46.7,30.8-167.2,48.6-167.2-35.5v-157c15.9,0.9,30.8,2.8,45.8,7.5
		c48.6,16.8,64.5,64.5,68.2,111.2h14V963.2l354.1,385.8h-87.8c0,4.7,0,9.3,0.9,14c51.4-0.9,58.9,65.4,74.7,100.9
		c35.5,80.3,63.5,163.5,97.2,243.8c23.4,57,45.8,114,68.2,171h16.8l99-237.3l354.1,385.8v-6.5c0.9-17.8-0.9-34.6-2.8-52.3
		c-1.9-29,5.6-57.9,4.7-86.9s-14.9-50.4-22.4-77.5c-2.8-14.9,0.9-29,5.6-43c9.3-26.2,3.7-49.5,0.9-76.6c-3.7-27.1,23.4-42,18.7-71
		c-1.9-14-9.3-22.4-8.4-36.4c0.9-13.1,2.8-24.3-0.9-38.3c-3.7-13.1-11.2-26.2-11.2-39.2c-0.9-16.8,5.6-30.8,0-47.6
		c-6.5-19.6-9.3-30.8-5.6-50.4c4.7-24.3,11.2-57.9-8.4-77.5c-10.3-12.1-17.8-13.1-20.6-30.8c-1.9-13.1-1.9-26.2-2.8-39.2
		c-0.9-13.1-2.8-26.2-8.4-38.3c-5.6-10.3-15.9-19.6-21.5-29.9c-9.3-21.5,2.8-45.8-3.7-68.2c-3.7-11.2-11.2-20.6-14.9-31.8
		c-3.7-11.2-5.6-23.4-11.2-34.6c-9.3-17.8-26.2-21.5-23.4-44.8c2.8-16.8,10.3-28-1.9-43.9c-11.2-14-25.2-18.7-31.8-35.5
		c-6.5-17.8-8.4-29-25.2-39.2c-12.1-9.3-26.2-19.6-41.1-21.5c-17.8-1.9-34.6,4.7-45.8-12.1c-8.4-13.1-7.5-28-25.2-33.6
		c-14.9-3.7-33.6,3.7-45.8-7.5c-10.3-9.3-14.9-22.4-24.3-32.7c-4.7-5.6-17.8-13.1-5.6-20.6c13.1-7.5,36.4,16.8,50.4,20.6
		c17.8,4.7,41.1,7.5,59.8,9.3c40.2,2.8,71-29,110.2-28c18.7,0.9,38.3,7.5,56.1,0.9c16.8-7.5,23.4-30.8,42-34.6
		c20.6-2.8,35.5,12.1,52.3-8.4c12.1-14.9,14-33.6,29.9-45.8c18.7-14,40.2-11.2,59.8-20.6c15.9-8.4,24.3-29.9,35.5-43.9
		C2244,596,2237.5,582,2230.9,568L2230.9,568z M1035.1,995.9v-24.3v-97.2c0-14-1.9-33.6,1.9-49.5l100.9,110.2
		C1120.1,978.1,1079,992.2,1035.1,995.9z M1762,1615.3c-11.9,29.4-24,58.7-36.4,87.8c1.9-4.7-11.2-28-13.1-32.7
		c-18.7-49.5-38.3-98.1-57.9-146.7c-5.6-14.9-12.1-29.9-17.8-44.8L1762,1615.3L1762,1615.3z M308.3,1832l-0.9-1.9
		c2.8-2.8,4.7-5.6,6.5-8.4c4.7-11.2-3.7-20.6-14.9-21.5c-16.8-1.9-37.4,10.3-44.8,24.3c-4.4,7-2.2,16.2,4.8,20.6
		c0.6,0.4,1.1,0.7,1.8,0.9c5.6,2.8,16.8,0,18.7-6.5v-0.9v-0.9l2.8-1.9l4.7,10.3l-23.4,11.2c-9.3-8.4-18.7-18.7-15.9-31.8
		c0.9-9.3,8.4-16.8,15.9-21.5c4-3,8.4-5.5,13.1-7.5c9.3-2.8,20.6-4.7,29.9,0c8.4,4.7,13.1,12.1,13.1,21.5c0,1.9,0,5.6,2.8,5.6
		l0.9,1.9L308.3,1832z M338.2,1857.2c0,0,0,0.9,0.9,0.9v0.9c1.9,3.7,0.9,8.4-1.9,14.9c-3.7,5.6-10.3,11.2-19.6,15.9
		c-10.3,5.6-17.8,7.5-24.3,7.5c-6.5-0.9-11.2-2.8-14-6.5v-0.9c-0.9,0-0.9,0-0.9-0.9v-0.9c-1.9-4.7-0.9-9.3,1.9-14.9
		c2.8-5.6,9.3-11.2,18.7-16.8c10.3-5.6,18.7-7.5,25.2-6.5s11.2,2.8,13.1,6.5h0.9L338.2,1857.2L338.2,1857.2z M341.9,1855.4
		c-3.7-6.5-10.3-11.2-18.7-11.2c-9.4-1-18.9,1-27.1,5.6c-9.3,4.7-15.9,11.2-20.6,18.7c-3.7,8.4-4.7,15.9-0.9,22.4
		c3.7,7.5,10.3,11.2,19.6,12.1s17.8-0.9,27.1-5.6c8.4-5.6,14.9-11.2,19.6-19.6C345.7,1870.3,345.7,1862.9,341.9,1855.4L341.9,1855.4
		z M302.7,1931.1l56.1-34.6l5.6,8.4l1.9,3.7c0.9,1.9,0.9,4.7,0.9,7.5c0,3.7-1.9,7.5-4.7,12.1c-1.9,3.7-7.5,8.4-14.9,13.1
		s-14,7.5-19.6,7.5c-5.6,0-9.3-0.9-12.1-2.8c-2.8-0.9-3.7-1.9-4.7-3.7c-1.9-0.9-2.8-1.9-2.8-2.8L302.7,1931.1L302.7,1931.1z
		 M356.9,1885.3l-2.8,1.9c0.9,0.9,0,2.8-0.9,3.7c-0.9,1.9-1.9,2.8-3.7,4.7l-43,25.2c-1.9,1.9-3.7,2.8-5.6,2.8c-1.9,0-2.8,0-3.7-1.9
		l-3.7,1.9l12.1,18.7c0,1.9,1.9,2.8,2.8,4.7c1.9,1.9,3.7,3.7,6.5,5.6c3.7,1.9,9.3,2.8,14.9,2.8c5.6,0,13.1-1.9,21.5-7.5
		c9.3-5.6,15.9-11.2,17.8-17.8c2.8-6.5,3.7-12.1,2.8-17.8c0-1.9-0.9-2.8-0.9-4.7c-1-1-1.6-2.3-1.9-3.7L356.9,1885.3L356.9,1885.3z
		 M372.8,1950.7l-1.9-2.8l16.8-13.1l3.7,5.6L372.8,1950.7z M398.9,1984.3l-1.9-1.9c1.9-2.8,3.7-4.7,4.7-6.5s1.9-3.7,1.9-4.7
		c0.9-2.8,0.9-4.7,0.9-5.6c-0.9-1.9-0.9-2.8-1.9-3.7c-1.9-1.9-3.7-3.7-6.5-2.8c-2.8,0-5.6,0.9-8.4,2.8c-2.8,1.9-4.7,3.7-4.7,6.5
		c-0.9,1.9-0.9,3.7-0.9,6.5v1.9c0.9,0.9,0.9,1.9,0.9,2.8s0,1.9,0.9,2.8v4.7c0,2.8,0,5.6-1.9,9.3c-0.9,3.7-3.7,6.5-8.4,9.3l-0.9,0.9
		c-4.7,2.8-9.3,4.7-14.9,4.7c-5.6,0-9.3-1.9-12.1-5.6c0,0-0.9-1.9-1.9-2.8c0-1.9-0.9-3.7-0.9-5.6c-0.9,0-0.9-0.9-0.9-0.9v-0.9v-0.9
		l-0.9-0.9v-0.9c-0.9,0-0.9-0.9-1.9-0.9h-1.9l-1.9-1.9l18.7-13.1l1.9,1.9c-3.7,4.7-6.5,8.4-7.5,13.1c-1.9,4.7-0.9,9.3,0.9,12.1
		c1.9,2.8,4.7,3.7,7.5,3.7c3.7,0,6.5-0.9,9.3-2.8l0.9-0.9c2.8-1.9,5.6-4.7,6.5-7.5s0.9-4.7,0.9-7.5c0-0.9,0-1.9-0.9-2.8v-2.8
		c-0.9-0.9-0.9-1.9-0.9-2.8v-2.8c-0.9-2.8,0-5.6,0.9-9.3c1.9-2.8,4.7-6.5,8.4-9.3c4.7-2.8,8.4-4.7,13.1-4.7s8.4,1.9,11.2,6.5
		c0.9,0,0.9,0,0.9,0.9c0,0,0.9,0,0.9,0.9s0,1.9,0.9,2.8v7.5h2.8l0.9,1.9L398.9,1984.3L398.9,1984.3z M448.4,2022.6
		c-1.9-1.9-2.8-1.9-4.7-0.9c-1.9,0-3.7,0.9-5.6,2.8l-38.3,30.8c-1.9,1.9-2.8,2.8-3.7,4.7s-0.9,2.8,0,4.7l-2.8,1.9l-10.3-12.1
		l2.8-1.9c1.9,0.9,2.8,1.9,4.7,0.9c1.9,0,3.7-0.9,5.6-2.8l38.3-31.8c1.9-0.9,3.7-2.8,3.7-4.7c0.9-1.1,0.9-2.7,0-3.7l2.8-2.8
		l10.3,12.1L448.4,2022.6L448.4,2022.6z M402.7,2073.1c0.9,0.9,2.8,1.9,3.7,0.9c1.9-0.9,3.7-1.9,4.7-2.8l38.3-33.6
		c1.9-0.9,2.8-2.8,3.7-4.7c0.9-1.9,0.9-2.8,0-4.7l2.8-1.9l6.5,8.4l-21.5,61.7l33.6-29.9c0.9,0,0.9-0.9,1.9-0.9c0,0,0-0.9,0.9-0.9
		c0.9-0.9,0.9-1.9,1.9-2.8c0-1.9,0-2.8-0.9-3.7l2.8-2.8l7.5,9.3l-2.8,1.9c-0.9-0.9-2.8-0.9-4.7-0.9c-0.9,0.9-2.8,1.9-3.7,2.8
		l-47.6,41.1l-0.9-0.9l24.3-70.1l-40.2,34.6c0,0.9,0,0.9-0.9,0.9c0,0.9-0.9,0.9-0.9,1.9c-0.9,0.9-0.9,1.9-0.9,2.8
		c-0.9,0.9-0.9,1.9,0,2.8l-2.8,2.8l-7.5-9.3L402.7,2073.1L402.7,2073.1z M520.4,2102c-0.9-0.9-2.8-1.9-3.7-0.9
		c-2.1,0.9-4,2.2-5.6,3.7l-14.9,15.9l21.5,21.5l15.9-15.9c1.9-1.9,2.8-3.7,3.7-5.6c0-0.9,0-2.8-0.9-3.7l2.8-2.8l10.3,11.2l-1.9,1.9
		c-0.9-0.9-2.8-0.9-3.7-0.9c-0.9,0.9-1.9,0.9-2.8,1.9c-0.9,0-0.9,0.9-1.9,0.9c0,0.9-0.9,0.9-0.9,1.9l-34.6,35.5
		c-1.9,1.9-2.8,3.7-3.7,4.7c-0.9,1.9,0,3.7,0.9,4.7l-2.8,2.8l-11.2-11.2l2.8-2.8c1.9,0.9,2.8,1.9,4.7,0.9c0.9-0.9,2.8-1.9,4.7-3.7
		l15.9-16.8l-21.5-21.5l-16.8,16.8c-1.9,1.9-2.8,3.7-2.8,5.6c-0.9,1.1-0.9,2.7,0,3.7l-1.9,2.8l-11.2-10.3l2.8-2.8
		c0.9,0.9,2.8,0.9,3.7,0.9c1.9-0.9,2.8-1.9,4.7-3.7l34.6-36.4c1.9-1.9,3.7-2.8,3.7-4.7c0.9-1.9,0.9-2.8-0.9-4.7l2.8-1.9l11.2,10.3
		L520.4,2102L520.4,2102z M564.3,2142.2c-1.1-0.9-2.7-0.9-3.7,0c-1.9,0.9-3.7,2.8-4.7,3.7l-33.6,37.4c-0.9,1.9-2.8,3.7-2.8,4.7
		c-0.9,1.9,0,3.7,0.9,4.7l-2.8,2.8l-11.2-10.3l1.9-2.8c1.9,0.9,3.7,0.9,4.7,0.9c1.9-0.9,2.8-2.8,4.7-3.7l33.6-37.4l2.8-5.6
		c0.9-1.9,0-2.8-0.9-3.7l2.8-2.8l11.2,10.3L564.3,2142.2L564.3,2142.2z M584.8,2180.5l-1.9-1.9c0.9-2.8,1.9-5.6,1.9-7.5
		c0.9-1.9,0.9-3.7,0.9-4.7c0-2.8,0-4.7-0.9-6.5c-0.9-0.9-0.9-1.9-1.9-1.9c-2.8-1.9-4.7-2.8-7.5-1.9s-5.6,1.9-7.5,4.7
		s-3.7,4.7-3.7,7.5s0.9,4.7,1.9,6.5c0,0.9,0.9,1.9,0.9,2.8s0.9,0.9,0.9,1.9c0.9,0.9,0.9,1.9,1.9,2.8c0,0.9,0.9,2.8,0.9,3.7
		c0.9,2.8,0.9,6.5,0.9,10.3c-1.3,4-3.2,7.8-5.6,11.2c0,0-0.9,0-0.9,0.9c-3.7,3.7-8.4,6.5-13.1,8.4c-4.7,1.9-9.3,0.9-13.1-1.9
		c-0.9-0.9-0.9-1.9-2.8-2.8c-0.9-0.9-1.9-2.8-2.8-4.7v-0.9l-0.9-0.9c0-0.9,0-0.9-0.9-0.9v-0.9h-0.9v-0.9h-1.9c0,0-0.9,0-1.9,0.9
		l-1.9-1.9l14.9-17.8l1.9,1.9c-2.8,4.7-3.7,10.3-3.7,14.9s0.9,8.4,3.7,10.3v0.9h0.9c1.9,1.9,4.7,1.9,7.5,0.9
		c3.7-0.9,6.5-2.8,8.4-5.6h0.9c1.9-2.8,3.7-6.5,3.7-9.3s0-4.7-0.9-7.5c-0.9-0.9-0.9-1.9-0.9-2.8l-1.9-1.9c0-0.9-0.9-1.9-0.9-2.8
		c-0.9-0.9-0.9-1.9-0.9-2.8c-0.9-2.8-1.9-5.6-0.9-9.3c0-3.7,1.9-7.5,5.6-11.2c2.8-3.7,6.5-6.5,11.2-7.5c4.7-1.9,8.4-0.9,12.1,2.8
		c0.9,0,0.9,0,0.9,0.9c0.9,0,0.9,0,0.9,0.9c0.9,0,1.9,0.9,1.9,2.8c0.9,0.9,0.9,1.9,0.9,3.7v0.9h0.9v1.9h2.8l1.9,0.9L584.8,2180.5
		L584.8,2180.5z M641.8,2203.8c-1.9-0.9-2.8-0.9-4.7,0c-1.5,1.4-2.7,2.9-3.7,4.7l-13.1,17.8l25.2,17.8l12.1-18.7
		c1.9-1.9,2.8-3.7,2.8-4.7c0.9-1.9,0-2.8-0.9-4.7l1.9-2.8l13.1,9.3l-2.8,2.8c-0.9-0.9-1.9-0.9-2.8-0.9c-0.9,0.7-1.8,1.4-2.8,1.9
		l-1.9,1.9c0,0.9-0.9,0.9-0.9,0.9l-29,41.1c-0.9,1.9-1.9,3.7-1.9,5.6c-0.9,1.9,0,2.8,0.9,4.7l-1.9,2.8l-13.1-9.3l2.8-2.8
		c1.1,0.9,2.7,0.9,3.7,0c1.9-0.9,2.8-2.8,4.7-4.7l13.1-18.7l-24.3-17.8l-14,18.7c-0.9,2.8-1.9,4.7-2.8,5.6c0,1.9,0,3.7,1.9,4.7
		l-2.8,2.8l-12.1-9.3l1.9-2.8c1.9,0.9,2.8,0.9,4.7,0c0.9-0.9,2.8-1.9,3.7-3.7l29-41.1c1.9-1.9,2.8-3.7,2.8-5.6c0-1.9,0-2.8-1.9-3.7
		l2.8-3.7l12.1,9.3L641.8,2203.8L641.8,2203.8z M705.3,2242.2c0.9,0,0.9,0,1.9,0.9c0,0,0.9,0,1.9,0.9h0.9c0.9,0,0.9,0.9,0.9,0.9h1.9
		c0,0.9,0.9,0.9,0.9,0.9l-7.5,12.1l-1.9-0.9c1.9-3.7,1.9-6.5,0.9-8.4c-1.9-2.8-3.7-4.7-6.5-5.6l-11.2-7.5l-15.9,25.2l7.5,5.6h0.9
		l0.9,0.9h2.8c0.9,0,2.8-0.9,3.7-2.8l2.8,0.9l-9.3,14l-1.9-1.9c0.9-2.8,1.9-4.7,0.9-5.6c0-0.9-0.9-0.9-2.8-2.8l-8.4-4.7l-15.9,27.1
		l13.1,8.4c2.8,1.9,5.6,2.8,9.3,2.8c2.8,0,5.6-1.9,8.4-5.6l2.8,0.9l-9.3,13.1l-36.4-22.4l1.9-2.8c1.9,0.9,2.8,0.9,4.7,0
		c1.5-1.4,2.7-2.9,3.7-4.7l26.2-43c1.9-1.9,2.8-3.7,2.8-5.6c0-0.9,0-2.8-1.9-3.7l1.9-2.8L705.3,2242.2L705.3,2242.2z M726.8,2311.3
		l-20.6-11.2l27.1-25.2l0.9,0.9L726.8,2311.3L726.8,2311.3z M743.6,2262.7l-0.9-0.9c0,0.9,0,0.9-0.9,0.9h-1.9c0,0.9-0.9,0.9-1.9,0.9
		h-1.9l-1.9,2.8c0,0.9,0,0.9,0.9,0.9v1.9c-0.9,0-0.9,0-0.9,0.9c0,0-0.9,0-1.9,0.9l-39.2,36.4c0,0.9-0.9,0.9-1.9,1.9
		c0,0-0.9,0-1.9,0.9c0,0.9-1.9,0.9-2.8,1.9c-0.9,0-1.9,0-2.8-0.9l-1.9,3.7l10.3,5.6l1.9-2.8c-0.9-0.9-0.9-1.9-0.9-2.8v-1.9
		c0,0,0-0.9,0.9-0.9v-0.9c0.9,0,0.9-0.9,1.9-1.9l7.5-6.5l22.4,13.1l-1.9,9.3v2.8c0,0-0.9,0-0.9,0.9c0,0.9-0.9,0.9-0.9,1.9
		c-0.9,0-1.9,0.9-2.8,0l-1.9,3.7l13.1,6.5l0.9-2.8c-0.9-0.9-0.9-1.9-0.9-3.7c-0.9-1.9,0-3.7,0-5.6L743.6,2262.7L743.6,2262.7z
		 M780.1,2283.3l-0.9,2.8h-3.7c-0.9,0.9-1.9,0.9-1.9,2.8v0.9c-0.9,0-0.9,0.9-0.9,0.9v2.8l-6.5,51.4l35.5-36.4c0.9,0,0.9,0,0.9-0.9
		h0.9v-0.9c0.9,0,0.9,0,0.9-0.9h0.9v-0.9c0.7-1.1,1-2.4,0.9-3.7l-1.9-1.9l-0.9-0.9l1.9-2.8l11.2,5.6l-0.9,2.8c-1.9,0-3.7,0-4.7,0.9
		c-1.9,0.9-2.8,1.9-4.7,3.7c0,0,0,0.9-0.9,0.9l-46.7,46.7l-1.9-0.9l9.3-68.2v-0.9v-1.9v-2.8c-0.9-0.9-0.9-1.9-1.9-1.9l1.9-3.7
		L780.1,2283.3z M847.3,2314.1h1.9c0.9,0.9,0.9,0.9,1.9,0.9h0.9l0.9,0.9h1.9c0.9,0,0.9,0,1.9,0.9l-5.6,13.1l-2.8-0.9
		c0.9-4.7,0.9-7.5-0.9-8.4c-1.2-2.2-3.2-3.9-5.6-4.7l-13.1-5.6l-12.1,28l9.3,3.7h0.9c0.9,0.9,1.9,0.9,3.7,0c0.9,0,1.9-0.9,2.8-3.7
		l2.8,1.9l-6.5,14l-2.8-0.9c0.9-2.8,0.9-4.7,0-5.6c0-0.9-0.9-0.9-2.8-1.9l-8.4-3.7l-13.1,29l14.9,5.6c2.8,1.9,6.5,2.8,9.3,1.9
		c3.7,0,6.5-1.9,8.4-6.5l1.9,0.9l-6.5,14l-39.2-15.9l0.9-3.7c1.9,0,3.7,0,4.7-0.9c0.9-0.9,1.9-2.8,2.8-5.6l19.6-45.8
		c0.9-1.9,1.9-4.7,1.9-5.6c0-1.9-0.9-2.8-2.8-3.7l1.9-3.7L847.3,2314.1L847.3,2314.1z M840.8,2387.9h0.9c0.9,0,1.9,0,3.7-0.9
		l2.8-5.6l16.8-46.7c0.9-2.8,0.9-4.7,0.9-6.5s-0.9-2.8-1.9-3.7l0.9-3.7l10.3,3.7l10.3,64.5h0.9l14.9-42v-0.9
		c0.9-0.9,0.9-0.9,0.9-1.9v-3.7c0-0.9-0.9-1.9-1.9-2.8l0.9-3.7l11.2,4.7l-1.9,2.8c-1.9,0-2.8,0.9-3.7,1.9c-0.9,0.9-1.9,2.8-2.8,4.7
		l-21.5,58.9l-1.9-0.9l-12.1-72.9l-17.8,50.4c0,0-0.9,0-0.9,0.9v5.6c0,0.9,0.9,1.9,1.9,1.9l-0.9,3.7l-11.2-4.7L840.8,2387.9
		L840.8,2387.9z M895.9,2424.3v-2.8c1.9-0.9,3.7-2.8,5.6-3.7c0.9-1.9,0.9-2.8,1.9-3.7h-0.9l-2.8-2.8c0-0.9,0-2.8,0.9-4.7v-0.9
		c0.9-0.9,0.9-1.9,1.9-1.9c0.9-0.9,1.9-0.9,3.7-0.9l0.9,0.9c0.9,0,0.9,0.9,1.9,1.9c0,1.9,0,3.7-0.9,5.6c-0.9,2.8-1.9,5.6-4.7,7.5
		c-1.9,2.8-3.7,3.7-5.6,5.6h-0.9L895.9,2424.3L895.9,2424.3z M962.3,2404.7l-22.4-6.5l20.6-30.8v0.9L962.3,2404.7z M966.9,2353.3
		l-0.9-0.9l-0.9,0.9c-0.9,0-0.9,0.9-1.9,0.9l-0.9,0.9h-1.9c0,0.9-0.9,0.9-0.9,0.9l-0.9,2.8c0,0.9,0.9,0.9,0.9,0.9v1.9
		c0,0.9-0.9,0.9-0.9,1.9l-29.9,45.8c0,0-0.9,0-0.9,0.9l-1.9,1.9c-0.9,0.9-1.9,1.9-2.8,1.9c-0.9,0.9-0.9,0.9-1.9,0.9l-0.9,3.7
		l11.2,2.8l0.9-3.7c-1-0.1-1.8-0.9-1.9-1.9c0,0-0.9-0.9-0.9-1.9h0.9v-0.9v-0.9c0-0.9,0.9-0.9,1.9-1.9l4.7-8.4l25.2,6.5l0.9,10.3v2.8
		c-0.9,1.9-0.9,2.8-1.9,2.8c0,0.9-0.9,0.9-1.9,0.9l-0.9,3.7l14,3.7l0.9-3.7c-0.9,0-1.9-0.9-2.8-2.8c0-1.9-0.9-3.7-0.9-6.5
		L966.9,2353.3L966.9,2353.3z M1009,2368.3c-1.4,0.2-2.7,0.9-3.7,1.9c-0.9,0.9-1.9,2.8-1.9,5.6l-12.1,57l15.9,2.8
		c2.6,0.9,5.5,0.1,7.5-1.9c2.8-1.9,4.7-4.7,5.6-8.4h2.8l-3.7,17.8l-40.2-9.3l0.9-2.8c1.9,0,2.8-0.9,3.7-1.9l2.8-5.6l10.3-48.6
		c0.9-2.8,0.9-4.7,0-6.5c0-1.9-0.9-2.8-2.8-2.8l0.9-3.7l14.9,2.8L1009,2368.3z M1054.7,2377.6c-1.9,0-2.8,0-3.7,1.9
		c-0.9,0.9-1.9,2.8-1.9,5.6l-10.3,57l16.8,2.8c2.8,0.9,5.6,0,7.5-2.8c1.9-1.9,3.7-4.7,5.6-8.4h1.9l-2.8,17.8l-40.2-7.5l0.9-2.8
		c1.4-0.2,2.7-0.9,3.7-1.9c0.9-1.9,1.9-3.7,1.9-6.5l8.4-48.6v-6.5c0-0.9-0.9-2.8-2.8-2.8v-3.7l15.9,2.8L1054.7,2377.6L1054.7,2377.6
		z M1088.4,2401l-1.9-0.9l0.9-21.5l6.5,0.9L1088.4,2401z M1132.3,2403.8h-2.8c-0.9-3.7-0.9-5.6-1.9-7.5l-2.8-5.6
		c-0.9-1.9-1.9-3.7-3.7-3.7c-1.9-0.9-2.8-0.9-2.8-0.9c-3.7-0.9-5.6,0-7.5,2.8c-1.9,1.9-2.8,4.7-3.7,7.5c0,3.7,0,6.5,1.9,8.4
		c1.1,2,2.7,3.6,4.7,4.7l1.9,1.9c0.9,0,1.9,0.9,1.9,0.9c0.9,0.9,1.9,0.9,3.7,1.9c0.9,0.9,1.9,0.9,2.8,1.9c1.9,1.9,4.7,4.7,5.6,8.4
		c1.9,2.8,2.8,7.5,1.9,12.1v1.9c-0.9,5.6-2.8,10.3-6.5,14c-2.7,3.5-6.8,5.5-11.2,5.6c-0.9-0.9-2.8-0.9-3.7-0.9l-5.6-2.8h-0.9
		l-0.9-0.9h-0.9c-0.9,0-0.9-0.9-0.9-0.9h-0.9c-0.9,0-0.9,0.9-1.9,0.9c0,0-0.9,0.9-0.9,1.9h-2.8l2.8-23.4h2.8
		c0,5.6,1.9,11.2,4.7,14.9s5.6,6.5,9.3,6.5h0.9c2.8,0.9,4.7-0.9,7.5-2.8c1.9-2.8,2.8-5.6,3.7-9.3v-0.9c0-3.7,0-6.5-1.9-9.3
		c-0.8-2.4-2.4-4.4-4.7-5.6c-0.9-0.9-1.9-0.9-2.8-1.9c-0.9-0.9-0.9-0.9-1.9-0.9c-0.9-0.9-1.9-0.9-2.8-1.9c-0.9,0-1.9-0.9-2.8-1.9
		c-2.3-2.1-4.2-4.7-5.6-7.5c-1.9-2.8-1.9-6.5-1.9-12.1c0.9-4.7,2.8-9.3,5.6-13.1c2.8-2.8,7.5-4.7,12.1-3.7h1.9
		c1.9,0,2.8,0.9,3.7,1.9c0.9,0,1.9,0.9,2.8,2.8h0.9c0,0,0,0.9,0.9,0.9h0.9c0.9,0,0.9,0,0.9-0.9h2.8L1132.3,2403.8L1132.3,2403.8z
		 M1187.4,2423.4l0.9-30.8h10.3c0.9,0,1.9,0,2.8,0.9c2.8,0,4.7,1.9,5.6,3.7c1.9,1.9,2.8,5.6,2.8,11.2c0,4.7-0.9,7.5-2.8,10.3
		c-1.6,1.6-3.5,2.8-5.6,3.7c-0.9,0.9-1.9,0.9-3.7,0.9H1187.4z M1177.1,2387.9v3.7c0.9,0,1.9,0,2.8,0.9c0,0,0.9,0.9,0.9,1.9v0.9
		c0,0,0,0.9,0.9,0.9v3.7l-1.9,49.5c0,2.8,0,4.7-0.9,5.6c-0.9,1.9-1.9,2.8-3.7,2.8v3.7l14.9,0.9v-3.7c-0.9-0.9-2.8-1.9-2.8-2.8
		c-0.9-1.9-0.9-3.7-0.9-5.6l0.9-23.4l11.2,0.9l14,34.6l9.3,0.9v-3.7c-0.9,0-1.9-0.9-2.8-1.9c-0.9-0.9-1.9-1.9-1.9-3.7
		c-0.9,0-0.9-0.9-0.9-0.9v-0.9l-10.3-26.2h1.9l6.5-6.5c1.9-2.8,2.8-6.5,2.8-12.1c0-7.5-1.9-12.1-5.6-14.9c-3.7-2.8-8.4-3.7-14-4.7
		H1177.1L1177.1,2387.9z M1244.4,2392.6c-1.9,0-2.8,0.9-3.7,2.8s-0.9,3.7-0.9,5.6v49.5c0,2.8,0.9,4.7,1.9,6.5c0,0.9,0.9,1.9,2.8,1.9
		v3.7h-14.9v-2.8c1.4-0.7,2.7-1.6,3.7-2.8c0-1.9,0.9-3.7,0.9-6.5l-0.9-49.5c0-2.8,0-4.7-0.9-5.6c-0.9-1.9-1.9-2.8-3.7-2.8v-3.7h15.9
		V2392.6L1244.4,2392.6z M1295.8,2404.7l-2.8,0.9c-0.9-4.7-2.8-7.5-4.7-9.3c-1.9-1.9-3.7-3.7-5.6-3.7c-0.9-0.9-2.8-0.9-3.7-1.9h-2.8
		c-0.9,0-1.9,0-2.8,0.9h-1.9c-3.7,1.9-6.5,5.6-9.3,10.3s-3.7,12.1-2.8,22.4v6.5c0.9,2.8,0.9,4.7,1.9,7.5c0.9,5.6,3.7,10.3,6.5,14
		c2.8,4.7,7.5,6.5,14,6.5c3.7-0.9,6.5-1.9,9.3-4.7s3.7-6.5,3.7-11.2c-0.9-2.8-0.9-4.7-1.9-5.6c0-1.9-0.9-1.9-1.9-2.8h-0.9h-0.9v-3.7
		l11.2-0.9l0.9,26.2c-2.8,1.9-5.6,2.8-8.4,3.7c-1.9,0.9-3.7,1.9-6.5,1.9c-0.9,0-0.9,0.9-1.9,0.9h-2.8c-4.7,0-7.5,0-10.3-0.9
		c-2.8-1.9-5.6-2.8-7.5-3.7c-0.9-0.9-1.9-1.9-1.9-2.8c-1-0.1-1.8-0.9-1.9-1.9c-2.8-2.8-4.7-7.5-6.5-12.1c-0.9-5.6-1.9-11.2-1.9-16.8
		v-9.3c0.9-3.7,0.9-5.6,1.9-8.4c0.9-1.9,0.9-2.8,1.9-3.7c0-1.9,0.9-1.9,0.9-2.8c1.9-3.7,4.7-7.5,8.4-9.3c2.8-1.9,6.5-3.7,10.3-3.7
		h6.5c1.9,0.9,2.8,0.9,3.7,1.9h0.9l0.9,0.9h0.9c0.9,0,0.9,0,1.9,0.9h0.9v-0.9h0.9l0.9-0.9h1.9L1295.8,2404.7L1295.8,2404.7z
		 M1320.1,2387.9c-1.9,0.9-2.8,1.9-2.8,3.7c-0.9,0.9-0.9,3.7-0.9,5.6l2.8,22.4l29.9-3.7l-1.9-21.5c-0.9-2.8-0.9-4.7-1.9-5.6
		c-0.9-1.9-1.9-2.8-3.7-2.8v-3.7l14.9-0.9l0.9,3.7c-1.9,0-2.8,0.9-2.8,1.9c-0.9,0.9-0.9,1.9-0.9,2.8c-0.9,0.9-0.9,1.9-0.9,1.9
		c0.5,0.5,0.9,1.2,0.9,1.9l4.7,49.5c0,2.8,0.9,4.7,1.9,6.5c0,0.9,1.9,1.9,3.7,1.9v3.7l-14.9,0.9l-0.9-2.8c1.7-0.7,3-2.1,3.7-3.7
		v-5.6l-1.9-23.4l-30.8,2.8l2.8,23.4c0,2.8,0,4.7,0.9,6.5c0.9,0.9,1.9,1.9,3.7,1.9l0.9,3.7l-15.9,0.9v-2.8c1.9-0.9,2.8-1.9,2.8-3.7
		c0.9-0.9,0.9-2.8,0.9-5.6l-5.6-49.5c0-2.8,0-4.7-0.9-6.5c-0.9-0.9-1.9-1.9-3.7-1.9l-0.9-3.7l15.9-0.9L1320.1,2387.9L1320.1,2387.9z
		 M1361.2,2379.5l17.8-1.9l14.9-1.9l15.9-3.7l1.9,14l-2.8,0.9v-2.8c-0.9-1.9-1.9-2.8-3.7-4.7c-0.9-0.9-2.8-0.9-5.6-0.9l-10.3,1.9
		l9.3,57c0,2.8,0.9,4.7,0.9,5.6c0.9,1.9,2.8,1.9,4.7,1.9v3.7l-14.9,2.8l-0.9-3.7c1.4-0.7,2.7-1.6,3.7-2.8v-6.5l-9.3-57l-10.3,1.9
		c-2.8,0-4.7,0.9-5.6,3.7c-0.9,1.9-0.9,3.7-0.9,6.5h-2.8L1361.2,2379.5L1361.2,2379.5z M1466.7,2384.2h-0.9l-5.6-10.3v-0.9h-0.9
		v-1.9c-0.9,0-0.9-0.9-0.9-0.9c0-1.9,0-2.8,0.9-3.7c0.9,0,1.9-0.9,2.8-0.9l1.9-0.9h0.9c0,0,0.9,0,0.9,0.9c0.9,0,0.9,0.9,1.9,1.9v3.7
		L1466.7,2384.2L1466.7,2384.2z M1495.7,2353.3l-12.1,3.7l0.9,2.8c0.9,0,1.9,0,2.8,0.9c0.9,0.9,0.9,1.9,1.9,2.8v6.5l-2.8,48.6
		l-16.8-29l0.9-16.8v-0.9v-0.9c0-2.8,0.9-4.7,1.9-5.6c0-1.9,0.9-2.8,1.9-2.8l-0.9-3.7l-28,6.5l0.9,3.7c0.9,0,2.8,0,3.7,0.9
		c1.2,1.1,2.1,2.3,2.8,3.7l13.1,23.4l-1.9,26.2l-25.2-43c0-1.9-0.9-2.8-0.9-2.8c-0.9-0.9-0.9-1.9-0.9-1.9v-2.8
		c0.9-0.9,0.9-1.9,1.9-1.9c0,0,0.9,0,0.9-0.9l-0.9-2.8l-15.9,3.7v3.7c1.9-0.9,3.7,0,4.7,0.9s2.8,1.9,2.8,3.7h0.9v0.9l32.7,57.9
		l2.8-0.9l1.9-34.6l17.8,30.8l1.9-0.9l4.7-65.4c0-3.7,0.9-7.5,1.9-8.4c0.9-0.9,0.9-1.9,1.9-1.9L1495.7,2353.3L1495.7,2353.3z
		 M1514.4,2351.5c-1.9,0.9-2.8,1.9-2.8,3.7s0,3.7,0.9,5.6l14,48.6c0,1.7,0.7,3.4,1.9,4.7c0.9,1.9,2.8,1.9,4.7,1.9l0.9,3.7l-14.9,3.7
		l-0.9-2.8c1.9-0.9,2.8-2.8,2.8-3.7c0-1.9,0-3.7-0.9-6.5l-14-47.6c0-2.8-0.9-3.7-2.8-5.6c-0.9-0.9-1.9-1.9-3.7-0.9l-0.9-3.7
		l14.9-4.7L1514.4,2351.5L1514.4,2351.5z M1518.1,2345.9l17.8-4.7l14-4.7l14.9-5.6l4.7,13.1l-2.8,0.9c0,0,0-0.9-0.9-0.9v-0.9
		c-0.7-1.7-2.1-3-3.7-3.7c-1.9-0.9-3.7-0.9-5.6-0.9l-10.3,3.7l17.8,55.1c0.9,2.8,1.9,4.7,2.8,5.6c0.9,0.9,2.8,1.9,3.7,0.9l1.9,3.7
		l-14.9,4.7l-0.9-3.7c0.9,0,1.9-1.9,2.8-2.8c0-1.9-0.9-3.7-1.9-6.5l-17.8-55.1l-10.3,3.7c-2.8,0.9-3.7,1.9-4.7,4.7v6.5l-2.8,0.9
		L1518.1,2345.9L1518.1,2345.9z M1584.5,2328.1c-0.9,0.9-1.9,1.9-1.9,3.7s0,3.7,0.9,5.6l8.4,20.6l28-11.2l-8.4-20.6
		c-0.9-1.9-1.9-3.7-2.8-4.7c-0.9-0.9-1.9-1.9-3.7-0.9l-1.9-3.7l14.9-5.6l0.9,3.7c-1,0.1-1.8,0.9-1.9,1.9v5.6
		c0.9,0.9,0.9,0.9,0.9,1.9l17.8,46.7c0.9,1.9,1.9,3.7,2.8,4.7c1.9,1.9,2.8,1.9,4.7,0.9l1.9,3.7l-14.9,5.6l-0.9-3.7
		c0.9-0.9,1.9-1.9,1.9-3.7c0-0.9,0-2.8-0.9-5.6l-8.4-21.5l-29,10.3l8.4,22.4c0.9,2.8,1.9,3.7,3.7,5.6c0.9,0.9,1.9,0.9,3.7,0.9
		l1.9,2.8l-14.9,5.6l-0.9-2.8c0.9-0.9,1.9-1.9,1.9-3.7s0-3.7-0.9-5.6l-17.8-46.7c-0.9-2.8-2.8-4.7-3.7-5.6s-1.9-1.9-3.7-0.9
		l-1.9-3.7l14.9-5.6L1584.5,2328.1L1584.5,2328.1z M1646.1,2298.2l16.8-7.5l13.1-6.5l14-7.5l6.5,13.1l-2.8,0.9v-0.9l-0.9-0.9
		c-0.9-1.9-2.8-2.8-4.7-3.7c-1.9-0.9-3.7-0.9-5.6,0.9l-9.3,3.7l25.2,52.3c0.9,2.8,1.9,4.7,3.7,5.6c0.9,0.9,1.9,0.9,3.7,0.9l1.9,2.8
		l-14,6.5l-1.9-2.8c1.9-0.9,2.8-2.8,2.8-3.7c0-1.9-0.9-3.7-1.9-6.5l-25.2-51.4l-10.3,4.7c-2.8,0.9-3.7,2.8-3.7,4.7
		c0,2.8,0,4.7,0.9,6.5l-2.8,1.9L1646.1,2298.2L1646.1,2298.2z M1709.6,2271.1c-1.9,0.9-1.9,1.9-1.9,3.7s0.9,3.7,1.9,5.6l11.2,19.6
		l26.2-14.9l-10.3-19.6c-1.9-1.9-2.8-3.7-3.7-4.7c-1.9-0.9-2.8-0.9-4.7,0l-1.9-3.7l14-7.5l0.9,3.7c-0.9,0.9-0.9,1.9-1.9,2.8
		c0,0.9,0.9,1.9,0.9,3.7c0,0,0,0.9,0.9,0.9c0,0.9,0,1.9,0.9,1.9l24.3,43.9c0.9,1.9,1.9,3.7,3.7,4.7c1.1,0.9,2.7,0.9,3.7,0l1.9,3.7
		l-13.1,7.5l-1.9-3.7c0.9-0.9,1.9-1.9,1.9-3.7c-0.9-1.9-0.9-3.7-2.8-5.6l-11.2-20.6l-26.2,14.9l11.2,20.6c0.9,1.9,2.8,3.7,3.7,4.7
		c0.9,0.9,2.8,0.9,4.7,0.9l0.9,2.8l-13.1,7.5l-1.9-2.8c1.9-0.9,1.9-2.8,1.9-4.7c0-0.9-0.9-2.8-1.9-5.6l-24.3-43
		c-0.9-2.8-2.8-3.7-3.7-5.6c-0.9-0.9-2.8-0.9-4.7,0l-1.9-2.8l14-7.5L1709.6,2271.1L1709.6,2271.1z M1771.3,2230c0,0,0.9,0,1.9-0.9
		c0,0,0.9-0.9,1.9-0.9c0-0.9,0.9-0.9,0.9-0.9s0-0.9,0.9-0.9c0-0.9,0.9-0.9,0.9-0.9l0.9-0.9l7.5,12.1l-1.9,0.9
		c-2.8-2.8-4.7-3.7-7.5-3.7c-1.9,0-4.7,0.9-7.5,2.8l-11.2,7.5l15.9,25.2l7.5-4.7c0.9,0,0.9-0.9,0.9-0.9h0.9c0.9-0.9,0.9-1.9,1.9-2.8
		c0-0.9,0-2.8-0.9-4.7l1.9-0.9l8.4,13.1l-1.9,0.9c-2.8-1.9-3.7-2.8-4.7-2.8c-1.4,0.2-2.7,0.9-3.7,1.9l-8.4,4.7l16.8,26.2l13.1-7.5
		c2.8-1.9,5.6-4.7,7.5-7.5s0.9-6.5-0.9-10.3l1.9-1.9l7.5,14l-35.5,23.4l-2.8-3.7c1.9-0.9,1.9-1.9,1.9-3.7s-0.9-3.7-1.9-5.6l-27.1-42
		c-0.9-2.8-2.8-3.7-3.7-4.7c-1.9-0.9-2.8-0.9-4.7-0.9l-1.9-2.8L1771.3,2230L1771.3,2230z M1851.6,2202l-9.3-7.5h-0.9
		c-0.9-0.9-0.9-0.9-1.9-0.9c0-0.9-0.9-0.9-0.9-1.9c-0.9-0.9-0.9-1.9-0.9-2.8l2.8-2.8l0.9-0.9h0.9c0.9-0.9,0.9-0.9,1.9-0.9
		c0,0.9,0.9,0.9,1.9,1.9c0,0,0,0.9,0.9,0.9v1.9L1851.6,2202L1851.6,2202z M1866.6,2161.8l-10.3,8.4l1.9,2.8v-0.9h3.7
		c0.9,0,1.9,0.9,2.8,1.9v0.9c0.9,0.9,0.9,0.9,0.9,1.9v0.9h0.9v1.9l17.8,45.8h-0.9l-26.2-19.6l-6.5-15.9v-0.9v-0.9
		c-0.9-1.9-1.9-3.7-1.9-5.6s0.9-2.8,1.9-3.7l-2.8-2.8l-23.4,17.8l2.8,2.8c0.9-0.9,1.9-0.9,3.7-0.9c0.9,0.9,2.8,1.9,3.7,2.8
		l21.5,15.9l9.3,24.3l-40.2-29c-0.9-0.9-1.9-1.9-2.8-1.9c0-0.9-0.9-0.9-0.9-1.9c-0.9-0.9-0.9-1.9-0.9-2.8v-1.9h0.9v-0.9l-1.9-2.8
		l-13.1,10.3l1.9,2.8c0.9-0.9,2.8-0.9,4.7-0.9c0.9,0.9,2.8,1.9,3.7,2.8h0.9l54.2,40.2l1.9-1.9l-13.1-32.7h0.9l28,20.6l1.9-0.9
		l-22.4-61.7c-1.9-3.7-2.8-6.5-1.9-8.4c0-0.9,0-1.9,0.9-1.9L1866.6,2161.8L1866.6,2161.8z M1889.9,2145.9v-0.9h0.9
		c3.7-2.8,8.4-2.8,14.9-1.9c6.5,1.9,13.1,7.5,20.6,15.9s11.2,15.9,12.1,22.4s0,11.2-3.7,14v0.9l-0.9,0.9h-0.9
		c-3.7,2.8-8.4,3.7-14.9,1.9c-6.5-1.9-13.1-6.5-20.6-14.9s-11.2-15.9-12.1-22.4s0.9-12.1,3.7-14.9v-0.9H1889.9L1889.9,2145.9z
		 M1887.1,2142.2c-5.7,5.6-8.5,13.6-7.5,21.5c1.9,9.3,5.6,17.8,12.1,25.2s14,12.1,23.4,14.9c8.4,2.8,15.9,0.9,21.5-3.7
		c6.5-5.6,8.4-12.1,7.5-21.5c-0.9-9.3-5.6-17.8-12.1-25.2c-6-6.9-13.7-12.1-22.4-14.9C1900.2,2135.7,1892.8,2137.5,1887.1,2142.2
		L1887.1,2142.2z M1945.1,2139.4l-21.5-22.4l5.6-5.6c0-0.9,0.9-0.9,1.9-1.9s1.9-0.9,2.8-1.9c1.9-0.9,3.7-1.9,6.5-0.9
		c2.8,0,5.6,1.9,9.3,5.6c3.7,3.7,4.7,6.5,5.6,9.3c0,2.8,0,4.7-0.9,6.5c0,1.9-0.9,2.8-1.9,3.7l-1.9,1.9L1945.1,2139.4z
		 M1912.4,2121.6l2.8,2.8c0.9-0.9,1.9-0.9,1.9-0.9h2.8c0,0,0.9,0,0.9,0.9h0.9c0,0.9,0.9,0.9,0.9,0.9c0,0.9,0.9,0.9,0.9,0.9
		s0,0.9,0.9,0.9l34.6,35.5c0.9,1.9,2.8,3.7,2.8,4.7c0.9,1.9,0.9,2.8,0,4.7l1.9,2.8l11.2-11.2l-1.9-1.9c-1.9,0.9-3.7,0.9-4.7,0
		c-1.9,0-3.7-1.9-4.7-3.7l-15.9-15.9l8.4-8.4l34.6,14.9l7.5-6.5l-2.8-2.8c-0.9,0.9-1.9,0.9-3.7,0.9c-0.9,0-2.8,0-3.7-0.9h-0.9
		c-0.9,0-0.9-0.9-1.9-0.9l-25.2-10.3l0.9-0.9v-0.9c0.9-2.7,0.9-5.7,0-8.4c-1.1-4.3-3.4-8.2-6.5-11.2c-4.7-5.6-9.3-7.5-14-6.5
		c-5.3,1-10.2,3.6-14,7.5L1912.4,2121.6L1912.4,2121.6z M1962.8,2076.8c-0.9,0.9-1.9,2.8-0.9,3.7c0.9,1.9,1.9,3.7,3.7,5.6l42,39.2
		l11.2-12.1c1.9-2,2.9-4.7,2.8-7.5c-0.9-3.7-2.8-6.5-4.7-9.3l1.9-1.9l12.1,12.1l-27.1,29.9l-2.8-2.8c0.9-0.9,0.9-2.8,0-4.7
		c0-0.9-1.9-2.8-3.7-4.7l-36.4-33.6c-1.9-1.9-2.8-2.8-4.7-3.7c-1.9-0.9-2.8,0-4.7,0.9l-1.9-2.8l10.3-11.2L1962.8,2076.8
		L1962.8,2076.8z M2041.3,2088.9l-50.4-43l6.5-7.5c0.9,0,1.9-0.9,2.8-2.8c1.9-0.9,4.7-2.8,7.5-3.7c2.8-0.9,7.5,0,12.1,0.9
		c5.6,0.9,11.2,4.7,17.8,10.3c7.5,5.6,11.2,11.2,13.1,15.9c1.9,5.6,2.8,9.3,1.9,13.1c-0.9,1.9-0.9,3.7-1.9,5.6
		c-0.7,1.4-1.6,2.7-2.8,3.7L2041.3,2088.9L2041.3,2088.9z M1980.6,2051.6l2.8,2.8c1.9-1.9,2.8-1.9,4.7-1.9c1.9,0.9,2.8,1.9,5.6,3.7
		l37.4,31.8l4.7,4.7c0,1.9,0,3.7-0.9,4.7l2.8,2.8l14-17.8c0.9-0.9,2.8-1.9,3.7-4.7c0.9-1.9,1.9-4.7,2.8-7.5
		c0.9-4.7,0.9-9.3-0.9-14.9c-1.9-5.6-6.5-11.2-14-17.8c-9.3-7.5-16.8-11.2-23.4-12.1c-6.5,0-13.1,0.9-16.8,3.7
		c-1.9,0.9-2.8,1.9-4.7,2.8l-2.8,2.8L1980.6,2051.6L1980.6,2051.6z M2072.1,2042.2c0.9-0.9,1.9-0.9,2.8-0.9s1.9,0.9,2.8,1.9
		c1.9,0.9,2.8,1.9,2.8,3.7v2.8c-0.9,0.9-1.9,0.9-2.8,0.9h-2.8l-0.9-0.9h-0.9v-0.9c-0.9,0-0.9-0.9-0.9-0.9c-0.9-0.9-0.9-1.9-0.9-2.8
		c-0.9-0.9,0-0.9,0-1.9L2072.1,2042.2L2072.1,2042.2z"/>
</g>
</svg>
